<?xml version="1.0" standalone="no"?>
<!DOCTYPE svg PUBLIC "-//W3C//DTD SVG 20010904//EN"
 "http://www.w3.org/TR/2001/REC-SVG-20010904/DTD/svg10.dtd">
<svg version="1.0" xmlns="http://www.w3.org/2000/svg"
 width="900.000000pt" height="900.000000pt" viewBox="0 0 900.000000 900.000000"
 preserveAspectRatio="xMidYMid meet">
<metadata>
Created by potrace 1.16, written by Peter Selinger 2001-2019
</metadata>
<g transform="translate(0.000000,900.000000) scale(0.100000,-0.100000)"
fill="#000000" stroke="none">
<path d="M4128 8913 c-2 -49 -3 -470 -3 -938 l0 -850 375 0 375 0 0 522 c0
287 3 524 6 527 8 8 214 -21 377 -54 614 -122 1234 -421 1702 -820 962 -823
1421 -2035 1254 -3318 -162 -1254 -984 -2364 -2139 -2891 -813 -370 -1724
-441 -2600 -201 -1039 285 -1930 1043 -2379 2025 -244 533 -360 1102 -343
1685 28 961 362 1764 1016 2443 l104 108 -49 52 c-28 29 -142 150 -253 270
-112 119 -209 217 -216 217 -15 0 -197 -191 -320 -335 -834 -975 -1191 -2304
-970 -3618 153 -914 588 -1751 1255 -2417 591 -592 1298 -992 2104 -1190 585
-144 1209 -168 1811 -69 916 150 1750 574 2418 1228 1237 1210 1666 3034 1102
4681 -382 1114 -1214 2054 -2280 2574 -643 315 -1284 456 -2065 456 l-279 0
-3 -87z"/>
<path d="M2118 6875 c5 -11 107 -166 225 -345 119 -179 359 -542 534 -808 175
-265 445 -674 599 -908 250 -377 284 -433 298 -492 28 -112 99 -242 178 -327
140 -150 301 -228 502 -242 357 -25 688 221 777 577 20 80 17 278 -5 360 -70
256 -275 458 -541 534 -84 24 -109 39 -1595 1023 -369 244 -914 603 -954 629
-29 18 -29 18 -18 -1z"/>
</g>
</svg>
